<svg width="55" height="56" viewBox="0 0 55 56" fill="none" xmlns="http://www.w3.org/2000/svg">
<path d="M24.6389 0.0324707C24.1925 0.0324707 23.744 0.0861812 23.302 0.195754C21.12 0.741455 19.4855 2.63207 19.1341 4.82777C18.8861 4.93305 18.6295 5.03402 18.4139 5.15433H18.4161C18.4118 5.15433 18.4096 5.15648 18.4074 5.15863C17.0943 5.91273 16.7148 7.408 17.1137 8.58967C17.5061 9.75198 18.6683 10.7059 20.1432 10.6092C22.3317 11.9563 25.1671 11.9713 27.3813 10.6758C30.2663 12.0143 32.9702 11.5502 34.566 10.0463C36.2327 8.47582 36.6252 5.8118 34.9886 3.65042C34.1843 2.58695 32.7893 1.7641 31.3813 1.75766C30.5597 1.75337 29.8008 1.96606 29.0871 2.22172C28.0995 0.986375 26.6506 0.172105 25.0852 0.0496757C24.9364 0.0389337 24.7898 0.0324883 24.641 0.0324883L24.6389 0.0324707ZM24.6302 1.54496C24.7381 1.54711 24.8459 1.55141 24.9558 1.56215C26.256 1.68031 27.5411 2.40216 28.216 3.48928V3.48713C28.41 3.8008 28.8024 3.92756 29.1453 3.78792C29.9021 3.47854 30.6611 3.2594 31.3727 3.26155C32.0497 3.2637 33.3305 3.95977 33.7811 4.55707C35.0102 6.18127 34.691 7.85705 33.5267 8.95275C32.3624 10.0485 30.2795 10.5447 27.6944 9.20197H27.6966C27.4486 9.07306 27.1532 9.09025 26.9225 9.24708C25.1286 10.4609 22.5067 10.4566 20.7171 9.23634V9.23419C20.5705 9.13537 20.3937 9.09025 20.2169 9.10744C20.232 9.10529 20.1716 9.10744 20.0767 9.11603V9.11388C20.0767 9.11603 20.0746 9.11603 20.0746 9.11603C19.2531 9.18693 18.7485 8.71642 18.5437 8.10844C18.3389 7.50256 18.4467 6.87309 19.1604 6.46274C19.417 6.31879 19.7016 6.18774 20.0315 6.06743H20.0293C20.329 5.96001 20.5295 5.67856 20.5295 5.36057L20.5274 5.40998C20.6374 3.70411 22.0065 2.07134 23.6711 1.65455C23.9838 1.57721 24.3068 1.54067 24.6302 1.54496ZM12.7366 8.47382C11.3933 8.47382 10.2872 9.57596 10.2872 10.9144C10.2872 12.2529 11.3933 13.355 12.7366 13.355C14.0799 13.355 15.1861 12.2529 15.1861 10.9144C15.1861 9.57596 14.0799 8.47382 12.7366 8.47382ZM12.7366 9.97773C13.2649 9.97773 13.6767 10.3881 13.6767 10.9144C13.6767 11.4408 13.2649 11.8511 12.7366 11.8511C12.2084 11.8511 11.7965 11.4408 11.7965 10.9144C11.7965 10.3881 12.2084 9.97773 12.7366 9.97773ZM9.18323 14.8289V14.8267C9.07111 14.831 8.96329 14.8568 8.86411 14.9084C8.84686 14.9148 8.82961 14.9234 8.81236 14.9298C8.71965 14.9836 8.63987 15.0545 8.57734 15.1404C8.56656 15.1576 8.55578 15.1748 8.54715 15.1919C8.48678 15.2843 8.44797 15.3896 8.43288 15.4992L7.99948 19.4566L6.13222 36.3624C6.13438 36.3881 6.13654 36.4139 6.14085 36.4376C6.13654 36.4419 6.13222 36.4462 6.13007 36.4504V49.8913H3.19765C1.4425 49.8913 0 51.3243 0 53.0774V54.2805C0 54.6952 0.338521 55.0325 0.754674 55.0325H54.2453C54.6615 55.0325 55 54.6952 55 54.2805V53.0774C55 51.3286 53.5618 49.8913 51.8023 49.8913H49.8445V32.6137C49.8445 32.3043 49.6548 32.0272 49.3658 31.9133L41.776 28.9291L40.7346 19.4565H40.7325V19.4544L40.2948 15.4991C40.2861 15.4154 40.2603 15.3337 40.2236 15.2607C40.2107 15.237 40.1977 15.2134 40.1826 15.1919C40.1524 15.1425 40.1179 15.0974 40.077 15.0566C40.0576 15.0351 40.0338 15.0158 40.0101 14.9964C39.9649 14.9599 39.9131 14.9298 39.8592 14.904C39.8376 14.8933 39.8161 14.8826 39.7945 14.874C39.7147 14.8439 39.6306 14.8288 39.5444 14.8267H32.4398C32.3557 14.8288 32.2716 14.8439 32.1918 14.874C32.1703 14.8826 32.1487 14.8933 32.1271 14.904C32.0732 14.9298 32.0236 14.9599 31.9762 14.9964C31.9525 15.0158 31.9309 15.0351 31.9094 15.0566C31.8684 15.0974 31.8339 15.1425 31.8037 15.1919C31.7886 15.2134 31.7757 15.237 31.7627 15.2607C31.7261 15.3337 31.7002 15.4154 31.6894 15.4991L31.2539 19.4544V19.4565L30.2556 28.5144L30.0205 28.4221L29.0308 19.4544L29.033 19.4565V19.4544L28.5953 15.4991C28.5845 15.4153 28.5608 15.3358 28.5241 15.2628C28.5112 15.237 28.4961 15.2112 28.4788 15.1876C28.4508 15.1403 28.4163 15.0974 28.3797 15.0565C28.3581 15.0351 28.3344 15.0157 28.3107 14.9964C28.2632 14.9599 28.2136 14.9298 28.1597 14.904C28.1382 14.8933 28.1166 14.8825 28.095 14.8739C28.0153 14.8438 27.9312 14.8288 27.8449 14.8266H20.7403C20.6562 14.8288 20.5721 14.8438 20.4924 14.8739C20.4708 14.8825 20.4492 14.8933 20.4298 14.904C20.3738 14.9276 20.322 14.9599 20.2746 14.9964C20.2509 15.0157 20.2293 15.035 20.2099 15.0544C20.1689 15.0974 20.1344 15.1425 20.1042 15.1919C20.0892 15.2134 20.0762 15.237 20.0633 15.2606C20.0245 15.3337 20.0007 15.4153 19.99 15.4991L19.5544 19.4544L19.5523 19.4565L18.6079 28.0502L18.4073 27.9707L17.4716 19.4546L17.4759 19.4567V19.4546L17.0382 15.4993C17.0231 15.3897 16.9843 15.2845 16.9261 15.1921C16.9153 15.1749 16.9045 15.1577 16.8937 15.1405C16.8312 15.0546 16.7514 14.9837 16.6587 14.93C16.6414 14.9235 16.6242 14.9149 16.6069 14.9085C16.5078 14.8569 16.3999 14.8312 16.2878 14.8269L9.18323 14.8289ZM9.86029 16.3328H15.6109L15.8826 18.7863H9.59268L9.86029 16.3328ZM21.4178 16.3328H27.1705L27.4422 18.7863H21.1485L21.4178 16.3328ZM33.1193 16.3328H38.8699L39.1415 18.7863H32.8478L33.1193 16.3328ZM9.42919 20.2902H16.0486L16.8637 27.7025V27.7003C16.8335 27.7283 16.8054 27.7562 16.7796 27.7884C16.7235 27.8314 16.6739 27.8829 16.6308 27.9409C16.5726 28.0376 16.5359 28.145 16.523 28.2589C16.5144 28.2804 16.5079 28.304 16.5014 28.3277V35.6949H7.72596L9.42919 20.2902ZM20.9822 20.2902H27.6083L28.4362 27.7987L28.0007 27.6269H27.9985H27.9899C27.8519 27.5796 27.7053 27.571 27.563 27.6054C27.5393 27.6097 27.5155 27.614 27.4918 27.6204C27.3538 27.6634 27.2331 27.7472 27.1404 27.8567C27.1296 27.8739 27.1188 27.8911 27.108 27.9061C27.0175 28.0286 26.9679 28.1747 26.9614 28.3272V31.3329L20.066 28.6237L20.9822 20.2902ZM32.6816 20.2902H39.3076L40.1895 28.3058L38.4602 27.6269C38.3201 27.5775 38.1691 27.5689 38.0268 27.6054C38.001 27.6097 37.9772 27.614 37.9535 27.6205C37.8177 27.6634 37.6991 27.7451 37.6085 27.8525C37.5934 27.874 37.5784 27.8955 37.5654 27.9191C37.4813 28.0394 37.4339 28.1812 37.4274 28.3273V31.3329L31.7116 29.0857L32.6816 20.2902ZM28.477 29.4339L37.906 33.1399L37.9038 33.1378C38.044 33.1872 38.1949 33.1958 38.3372 33.1592C38.3631 33.1571 38.3868 33.1507 38.4105 33.1442C38.5464 33.1012 38.665 33.0196 38.7555 32.9122C38.7706 32.8907 38.7857 32.8692 38.7986 32.8477C38.8827 32.7274 38.9323 32.5856 38.9366 32.4395V29.4317L40.7974 30.1621L40.7996 30.1643L48.3331 33.1248V49.8909H45.3317V39.2067C45.3317 38.792 44.9953 38.4547 44.577 38.4547H37.7937C37.3775 38.4547 37.039 38.792 37.039 39.2067V49.8909H18.0104V36.4974C18.0126 36.4802 18.0126 36.463 18.0147 36.4437V29.4312L18.9721 29.8072V29.8093C18.9721 29.8093 18.9742 29.8093 18.9764 29.8115L27.4416 33.1373H27.4395C27.5796 33.1867 27.7306 33.1953 27.875 33.1588C27.9009 33.1545 27.9268 33.1502 27.9526 33.1437C28.0842 33.0986 28.1984 33.0213 28.2869 32.916C28.3084 32.8902 28.3257 32.8623 28.3429 32.8343C28.4141 32.7248 28.4572 32.6002 28.4658 32.4691C28.468 32.4584 28.4723 32.4498 28.4744 32.439L28.477 29.4339ZM7.63954 37.2026H16.5017V49.891H7.63954V37.2026ZM21.1913 38.4572H21.1892C20.773 38.4572 20.4345 38.7924 20.4345 39.2092V43.9572V43.955C20.4345 44.3718 20.773 44.707 21.1892 44.707H25.9543C26.3705 44.707 26.709 44.3718 26.709 43.955V39.2092C26.709 38.7924 26.3705 38.4572 25.9543 38.4572L21.1913 38.4572ZM29.4948 38.4572H29.4927C29.0765 38.4572 28.738 38.7924 28.738 39.2092V43.9572V43.955C28.738 44.3718 29.0765 44.707 29.4927 44.707H34.2579C34.674 44.707 35.0125 44.3718 35.0125 43.955V39.2092C35.0125 38.7924 34.674 38.4572 34.2579 38.4572L29.4948 38.4572ZM38.5507 39.9611L43.8226 39.959V49.8914H38.5485L38.5507 39.9611ZM21.9459 39.9611H25.2017V43.2052H21.9459V39.9611ZM30.2494 39.9611H33.5052V43.2052H30.2494V39.9611ZM10.3846 40.698C9.96627 40.698 9.62989 41.0353 9.62989 41.45V46.7179C9.62989 47.1325 9.96626 47.4698 10.3846 47.4698H14.3908C14.8069 47.4698 15.1454 47.1325 15.1454 46.7179V41.45C15.1454 41.0353 14.8069 40.698 14.3908 40.698H10.3846ZM11.1392 42.2019H13.6361V45.966H11.1392V42.2019ZM3.19783 51.3951H6.87847C6.88062 51.3973 6.88278 51.3994 6.88494 51.4016H17.2562V51.3994H49.088C49.1053 51.3994 49.1225 51.3973 49.142 51.3951H51.8048C52.7471 51.3951 53.4931 52.1428 53.4931 53.0773V53.5285H1.50941V53.0773C1.50941 52.1385 2.2599 51.3951 3.19783 51.3951Z" fill="#C2CDBD"/>
</svg>
