<svg width="55" height="55" viewBox="0 0 55 55" fill="none" xmlns="http://www.w3.org/2000/svg">
<path d="M38.8497 0C37.1756 0 35.7145 1.02824 34.7209 2.52906C33.7272 4.02988 33.1446 6.03606 33.1446 8.23675C33.1446 8.43584 33.1511 8.63274 33.1598 8.82746L25.6434 8.8209C24.5606 8.8209 23.517 9.25189 22.7495 10.0263L1.75275 31.1539C0.161194 32.7554 0.161194 35.3764 1.75275 36.9776L17.7072 53.0292C19.301 54.6329 21.9057 54.6329 23.4948 53.0292L24.0057 52.5151C24.7428 53.5652 25.956 54.2566 27.3214 54.2566H50.3877C52.6206 54.2566 54.4426 52.4189 54.4426 50.1763L54.4404 20.0069C54.4404 18.7468 53.9273 17.5413 53.0272 16.6706L46.2199 10.1116C45.7329 9.64341 45.1523 9.29776 44.5262 9.08336C44.5457 8.80552 44.5566 8.52329 44.5566 8.23889C44.5566 6.03797 43.9739 4.0318 42.9803 2.53119C41.9867 1.03037 40.5234 0.00213443 38.8492 0.00213443L38.8497 0ZM38.8497 1.53801C39.9042 1.53801 40.9131 2.1812 41.7089 3.38233C42.5046 4.5834 43.0286 6.31397 43.0286 8.23703C43.0286 8.43612 43.0221 8.63521 43.0112 8.82992H34.6906C34.6797 8.63302 34.6732 8.43613 34.6732 8.23703C34.6732 6.31178 35.1972 4.58346 35.9929 3.38233C36.7887 2.18126 37.7975 1.53801 38.852 1.53801H38.8497ZM25.6432 10.3591L31.222 10.3635L24.6775 16.6688V16.671L24.6753 16.6732C24.671 16.6776 24.6666 16.6819 24.6623 16.6863C23.8948 17.4301 23.4208 18.4146 23.2969 19.467C23.2947 19.491 23.2882 19.5129 23.286 19.537C23.2708 19.6923 23.2621 19.8476 23.2621 20.0051V50.1745C23.2621 50.4568 23.2904 50.7346 23.3469 51.0015L22.412 51.9423V51.9445C21.4075 52.9574 19.7964 52.9596 18.7875 51.9445L2.83303 35.8906C1.82419 34.8755 1.82419 33.2565 2.83303 32.2414L23.8298 11.1138C24.3103 10.6303 24.9627 10.3591 25.6432 10.3591ZM34.6574 10.3679H42.8044C42.5783 11.4224 42.1956 12.3566 41.7086 13.0917C41.6173 13.2273 41.5238 13.3564 41.4281 13.4789C40.8019 12.746 39.8778 12.2779 38.8495 12.2779C36.9774 12.2779 35.4446 13.8224 35.4446 15.7039C35.4446 17.5876 36.9774 19.13 38.8495 19.13C40.7237 19.13 42.2543 17.5854 42.2543 15.7039C42.2543 15.4458 42.2217 15.1942 42.1674 14.9535C42.463 14.6516 42.7348 14.3125 42.9783 13.9428C43.5936 13.013 44.0524 11.8884 44.3111 10.6436C44.622 10.7858 44.9112 10.9784 45.1612 11.219L51.9685 17.778C52.5686 18.3578 52.9121 19.1629 52.9121 20.003V50.1724C52.9121 51.5857 51.7924 52.7146 50.3856 52.7146L27.3194 52.719C26.1301 52.719 25.1495 51.9073 24.8756 50.7981C24.8625 50.7478 24.8473 50.6996 24.8386 50.6471C24.8103 50.494 24.7908 50.3365 24.7908 50.1746V20.0074C24.7908 19.1695 25.1321 18.3688 25.7322 17.7824H25.7344L25.7366 17.7802L32.5399 11.2235C32.9661 10.8122 33.501 10.5365 34.0728 10.4249H34.0749C34.2641 10.3877 34.4598 10.368 34.6555 10.368L34.6574 10.3679ZM38.8493 13.8158C39.4407 13.8158 39.956 14.0893 40.2995 14.5115C39.8386 14.7916 39.3494 14.9381 38.8493 14.9381C38.6471 14.9381 38.4536 15.0191 38.3101 15.1613C38.1666 15.3057 38.0862 15.5026 38.0862 15.7061C38.0862 16.1305 38.4275 16.474 38.8493 16.474C39.5016 16.474 40.1213 16.3165 40.6952 16.0364C40.543 16.9268 39.7864 17.5941 38.8493 17.5941C37.8035 17.5941 36.9729 16.7562 36.9729 15.7038C36.9729 14.6515 37.8057 13.8136 38.8493 13.8136L38.8493 13.8158ZM38.8493 24.7719C32.9243 24.7719 28.1041 29.6223 28.1041 35.5841C28.1041 41.5461 32.9244 46.3963 38.8493 46.3963C44.7742 46.3963 49.5945 41.546 49.5945 35.5841C49.5945 29.6222 44.7742 24.7719 38.8493 24.7719ZM38.8493 26.3099C43.9479 26.3099 48.0661 30.4536 48.0661 35.5842C48.0661 40.7148 43.9481 44.8584 38.8493 44.8584C33.7505 44.8584 29.6325 40.7148 29.6325 35.5842C29.6325 30.4536 33.7505 26.3099 38.8493 26.3099ZM38.8493 28.9068C38.4275 28.9068 38.0861 29.2525 38.0861 29.6769V30.4973H37.86C36.2598 30.4973 34.9487 31.8188 34.9487 33.4268C34.9487 35.037 36.262 36.3562 37.86 36.3562H39.8473C40.6235 36.3562 41.2323 36.9688 41.2323 37.7499C41.2323 38.5309 40.6235 39.1435 39.8473 39.1435H38.9254C38.9015 39.1413 38.8754 39.1391 38.8493 39.1391C38.8341 39.1413 38.8189 39.1413 38.8015 39.1435H37.8709C37.2164 39.1435 36.6316 38.7147 36.4316 38.0868H36.4338C36.3055 37.6842 35.875 37.4611 35.4727 37.5902C35.0705 37.7214 34.8509 38.1524 34.9792 38.5572C35.3814 39.8174 36.5555 40.6815 37.8731 40.6815H38.0861V41.4932C38.0861 41.9176 38.4275 42.2633 38.8493 42.2633C39.0515 42.2633 39.2472 42.1824 39.3907 42.038C39.5342 41.8936 39.6146 41.6989 39.6146 41.4932V40.6815H39.8473C41.4475 40.6815 42.7586 39.3601 42.7586 37.7521C42.7586 36.1419 41.4453 34.8226 39.8473 34.8226H37.86C37.0838 34.8226 36.475 34.21 36.475 33.429C36.475 32.648 37.0838 32.0354 37.86 32.0354H39.8342C40.4909 32.0354 41.0714 32.4576 41.2714 33.0899H41.2692C41.3323 33.2846 41.4671 33.4465 41.6475 33.5406C41.828 33.6346 42.0367 33.6521 42.2302 33.5887C42.6325 33.4596 42.8543 33.0286 42.726 32.6239C42.3237 31.3593 41.1475 30.4995 39.8321 30.4995H39.6147V29.6769C39.6147 29.4734 39.5342 29.2765 39.3907 29.1321C39.2472 28.9877 39.0515 28.9068 38.8493 28.9068Z" fill="#C2CDBD"/>
</svg>
