<svg width="55" height="55" viewBox="0 0 55 55" fill="none" xmlns="http://www.w3.org/2000/svg">
<path d="M27.5 0C26.7998 0 26.2677 0.273289 25.674 0.60004C25.0802 0.926793 24.456 1.34727 23.8498 1.76308C23.2435 2.17889 22.6519 2.59008 22.1459 2.91501C21.64 3.23988 21.1826 3.47198 21.0681 3.50209C20.9535 3.53345 20.4446 3.56672 19.8439 3.53913C19.2433 3.50777 18.5193 3.43693 17.7864 3.37985C17.0535 3.32341 16.3193 3.28087 15.6418 3.29466C14.9643 3.30721 14.3629 3.33921 13.7565 3.68728C13.1501 4.03724 12.8203 4.54109 12.4694 5.12071C12.1184 5.70021 11.7938 6.36694 11.4767 7.0301C11.1596 7.69326 10.8468 8.35878 10.5711 8.89319C10.2954 9.42753 10.0179 9.85015 9.93401 9.934C9.85016 10.018 9.42757 10.2954 8.8932 10.5711C8.35879 10.847 7.69329 11.1484 7.03011 11.4656C6.36692 11.7829 5.70038 12.1184 5.12071 12.4694C4.54109 12.8199 4.0374 13.1371 3.68729 13.7435C3.3372 14.35 3.30879 14.9533 3.29467 15.6307C3.28087 16.3081 3.33557 17.0535 3.39283 17.7864C3.4499 18.5193 3.51072 19.2433 3.53914 19.8439C3.56734 20.4447 3.53304 20.9536 3.50209 21.0681C3.47134 21.1829 3.25292 21.6399 2.92798 22.1459C2.60304 22.6521 2.17887 23.2435 1.76309 23.8498C1.34728 24.4562 0.937687 25.0691 0.611161 25.6628C0.284653 26.2568 0 26.7998 0 27.5C0 28.2002 0.284596 28.7305 0.611161 29.3242C0.937659 29.9181 1.3473 30.5311 1.76309 31.1373C2.1789 31.7437 2.60303 32.3462 2.92797 32.8522C3.25292 33.3583 3.47136 33.8155 3.50209 33.9301C3.53284 34.0448 3.56729 34.5425 3.53913 35.1431C3.51089 35.7439 3.44983 36.4677 3.39283 37.2007C3.33575 37.9335 3.28062 38.6789 3.29467 39.3563C3.30846 40.0338 3.33733 40.6371 3.68729 41.2435C4.03737 41.85 4.54107 42.1778 5.12071 42.5288C5.70035 42.8794 6.36692 43.2043 7.03011 43.5214C7.69329 43.8388 8.35881 44.1401 8.89319 44.416C9.4276 44.6919 9.85015 44.98 9.93401 45.0641C10.0179 45.1482 10.2954 45.5723 10.5711 46.1068C10.8468 46.6412 11.1596 47.2919 11.4767 47.9551C11.7938 48.6182 12.1184 49.2866 12.4694 49.8663C12.8203 50.4458 13.1501 50.9626 13.7565 51.3127C14.3629 51.6627 14.9643 51.6891 15.6418 51.7035C16.3193 51.716 17.0535 51.6593 17.7864 51.6053C18.5193 51.5489 19.2433 51.4872 19.8439 51.459C20.4446 51.4278 20.9535 51.4666 21.0681 51.4979C21.1827 51.5294 21.64 51.7472 22.1459 52.072C22.6519 52.3969 23.2436 52.8211 23.8498 53.2369C24.456 53.6527 25.0802 54.0605 25.674 54.387C26.2677 54.7137 26.7998 55 27.5 55C28.2003 55 28.7305 54.7138 29.3242 54.387C29.9179 54.0603 30.544 53.6527 31.1503 53.2369C31.7565 52.8211 32.3463 52.397 32.8522 52.072C33.3582 51.7472 33.8156 51.5286 33.9301 51.4979C34.0447 51.4667 34.5554 51.4314 35.1561 51.459C35.7567 51.4906 36.4807 51.5489 37.2136 51.6053C37.9465 51.6618 38.6789 51.7179 39.3564 51.7035C40.0338 51.6909 40.6371 51.6608 41.2435 51.3127C41.8499 50.9628 42.1779 50.4459 42.5288 49.8663C42.8797 49.2868 43.2044 48.6182 43.5215 47.9551C43.8385 47.2919 44.1532 46.6412 44.4289 46.1068C44.7046 45.5725 44.9803 45.1481 45.0641 45.0641C45.148 44.9801 45.5724 44.6913 46.1068 44.416C46.6412 44.14 47.3049 43.8387 47.968 43.5214C48.6312 43.2041 49.2867 42.8797 49.8663 42.5288C50.446 42.1776 50.9626 41.8499 51.3127 41.2435C51.6628 40.637 51.6894 40.0338 51.7035 39.3563C51.7171 38.6789 51.6626 37.9335 51.6053 37.2007C51.5482 36.4677 51.4875 35.7438 51.459 35.1431C51.4307 34.5423 51.4651 34.0446 51.4961 33.9301C51.5269 33.8153 51.7471 33.3581 52.072 32.8522C52.397 32.3461 52.8193 31.7435 53.2351 31.1373C53.6509 30.5308 54.0605 29.9179 54.387 29.3242C54.7135 28.7303 55 28.2002 55 27.5C55 26.7998 54.7136 26.2566 54.387 25.6628C54.0605 25.0689 53.6509 24.456 53.2351 23.8498C52.8193 23.2433 52.397 22.6519 52.072 22.1459C51.7471 21.6398 51.5268 21.1827 51.4961 21.0681C51.4652 20.9533 51.4309 20.4448 51.459 19.8439C51.4874 19.2431 51.5484 18.5193 51.6053 17.7864C51.6624 17.0535 51.7175 16.3081 51.7035 15.6307C51.6899 14.9533 51.6627 14.35 51.3127 13.7435C50.9627 13.137 50.446 12.8203 49.8663 12.4694C49.2867 12.1181 48.6312 11.7827 47.9681 11.4656C47.3049 11.1482 46.6412 10.8469 46.1068 10.5711C45.5724 10.2951 45.148 10.0178 45.0642 9.934C44.9803 9.84996 44.7047 9.4276 44.4289 8.89319C44.1532 8.35885 43.8386 7.69327 43.5215 7.0301C43.2044 6.36694 42.8797 5.7004 42.5288 5.12072C42.1779 4.54122 41.8499 4.03737 41.2435 3.68728C40.6371 3.3367 40.0338 3.30909 39.3564 3.29467C38.6789 3.28212 37.9465 3.32531 37.2136 3.37986C36.4807 3.4363 35.7567 3.51028 35.1561 3.53913C34.5555 3.57049 34.0447 3.53364 33.9301 3.50209C33.8155 3.47073 33.3582 3.23988 32.8522 2.91501C32.3463 2.59014 31.7565 2.17883 31.1503 1.76308C30.544 1.34727 29.9179 0.926542 29.3242 0.60004C28.7305 0.273288 28.2002 0 27.5 0ZM27.5 1.89828C27.5088 1.89828 27.9338 1.99842 28.4186 2.26497C28.9033 2.53151 29.481 2.91315 30.0724 3.31874C30.6638 3.72452 31.2639 4.15889 31.8244 4.51882C32.3848 4.87881 32.8708 5.1753 33.4411 5.32814C34.0115 5.48054 34.5759 5.45765 35.2413 5.42629C35.9066 5.39493 36.645 5.33333 37.3599 5.27813C38.0749 5.22169 38.7662 5.18166 39.3193 5.19294C39.8724 5.20549 40.2932 5.32375 40.3009 5.32814C40.3084 5.33255 40.6144 5.62728 40.9009 6.10041C41.1874 6.57392 41.5101 7.20355 41.8195 7.85053C42.1289 8.49751 42.4327 9.16979 42.7381 9.76177C43.0435 10.3538 43.3114 10.8518 43.7289 11.2693C44.1464 11.687 44.6444 11.9547 45.2364 12.2601C45.8284 12.5655 46.5006 12.8714 47.1476 13.1805C47.7946 13.4897 48.4134 13.8 48.8866 14.0861C49.3599 14.3727 49.6656 14.691 49.67 14.6991C49.6743 14.7054 49.7937 15.126 49.8052 15.6788C49.8167 16.232 49.7758 16.9233 49.72 17.6382C49.6642 18.3532 49.5922 19.0934 49.5608 19.7587C49.5296 20.424 49.5063 20.9885 49.6589 21.5589C49.8118 22.129 50.1194 22.6022 50.4793 23.1627C50.8393 23.7234 51.2608 24.3362 51.6665 24.9276C52.0721 25.519 52.4666 26.0967 52.7332 26.5814C52.9998 27.0662 53.0999 27.4912 53.0999 27.5C53.0999 27.5063 52.9997 27.9206 52.7332 28.4056C52.4666 28.8904 52.0721 29.481 51.6665 30.0724C51.2608 30.6638 50.8393 31.262 50.4793 31.8225C50.1194 32.3832 49.8117 32.8707 49.6589 33.4411C49.5061 34.0112 49.5293 34.5759 49.5608 35.2413C49.5919 35.9066 49.6645 36.632 49.72 37.347C49.7759 38.062 49.8167 38.7662 49.8052 39.3193C49.7941 39.8725 49.6744 40.2914 49.67 40.299C49.6657 40.3055 49.3599 40.6143 48.8866 40.9009C48.4134 41.1875 47.7946 41.4971 47.1476 41.8065C46.5006 42.1157 45.8283 42.4324 45.2364 42.7381C44.6444 43.0435 44.1464 43.3004 43.7289 43.7178C43.3113 44.1354 43.0435 44.6444 42.7381 45.2364C42.4327 45.8284 42.1288 46.5006 41.8195 47.1476C41.5101 47.7947 41.1874 48.4134 40.9009 48.8866C40.6144 49.3601 40.3085 49.6656 40.3009 49.67C40.2933 49.6743 39.8724 49.7933 39.3193 49.8052C38.7662 49.8177 38.0749 49.7747 37.3599 49.72C36.645 49.6636 35.9066 49.5921 35.2413 49.5607C34.5759 49.5296 34.0115 49.5046 33.4411 49.6589C32.8707 49.8119 32.3848 50.1196 31.8244 50.4793C31.2639 50.8393 30.6638 51.2608 30.0724 51.6664C29.481 52.0722 28.9033 52.4536 28.4186 52.7202C27.9339 52.9867 27.5089 53.0999 27.5 53.0999C27.4912 53.0999 27.0662 52.9868 26.5814 52.7202C26.0967 52.4537 25.519 52.0721 24.9276 51.6664C24.3362 51.2607 23.7361 50.8393 23.1756 50.4793C22.6152 50.1193 22.1292 49.8117 21.5589 49.6589C20.9885 49.5059 20.4241 49.5294 19.7587 49.5607C19.0934 49.5923 18.3532 49.6642 17.6382 49.72C16.9233 49.7764 16.2319 49.8165 15.6788 49.8052C15.1257 49.7926 14.7068 49.6744 14.6991 49.67C14.6916 49.6657 14.3727 49.3601 14.0861 48.8866C13.7997 48.4131 13.4898 47.7947 13.1805 47.1476C12.8711 46.5006 12.5673 45.8283 12.2619 45.2364C11.9565 44.6443 11.6868 44.1353 11.2693 43.7178C10.8517 43.3001 10.3537 43.0434 9.76178 42.7381C9.16979 42.4326 8.49936 42.116 7.85238 41.8065C7.20541 41.4973 6.58478 41.1877 6.11153 40.9009C5.63827 40.6143 5.33258 40.3065 5.32815 40.299C5.3237 40.2929 5.20442 39.8722 5.19295 39.3193C5.18166 38.7662 5.22438 38.062 5.27999 37.347C5.33581 36.632 5.40778 35.9066 5.43926 35.2413C5.47062 34.5759 5.4937 34.0115 5.34111 33.4411C5.18827 32.871 4.88061 32.3829 4.52068 31.8225C4.16075 31.2618 3.73734 30.6638 3.33171 30.0724C2.92606 29.481 2.53341 28.8904 2.26682 28.4056C2.00022 27.9208 1.89828 27.5089 1.89828 27.5C1.89828 27.4937 2.00028 27.0661 2.26682 26.5814C2.53343 26.0966 2.92608 25.519 3.33171 24.9276C3.73736 24.3362 4.16074 23.7231 4.52068 23.1627C4.88061 22.602 5.18827 22.1292 5.34111 21.5589C5.49394 20.9888 5.47075 20.424 5.43926 19.7587C5.4079 19.0934 5.33556 18.3532 5.27999 17.6382C5.22417 16.9232 5.18147 16.2319 5.19295 15.6788C5.20424 15.1257 5.32375 14.7068 5.32815 14.6991C5.33259 14.6929 5.63827 14.3727 6.11153 14.0861C6.58478 13.7995 7.20541 13.4899 7.85238 13.1805C8.49936 12.8713 9.16983 12.5654 9.76178 12.2601C10.3538 11.9547 10.8517 11.687 11.2693 11.2693C11.6868 10.8516 11.9565 10.3537 12.2619 9.76177C12.5674 9.16972 12.8712 8.49751 13.1805 7.85053C13.4899 7.20355 13.7996 6.57367 14.0861 6.10041C14.3726 5.6269 14.6914 5.33253 14.6991 5.32814C14.7067 5.32369 15.1257 5.20423 15.6788 5.19294C16.2319 5.1804 16.9233 5.22358 17.6382 5.27813C18.3532 5.33458 19.0934 5.39493 19.7587 5.42629C20.4241 5.45765 20.9885 5.48242 21.5589 5.32813C22.1293 5.1751 22.6152 4.87887 23.1756 4.51882C23.7361 4.15883 24.3362 3.72439 24.9276 3.31874C25.519 2.91296 26.0967 2.53157 26.5814 2.26496C27.0662 1.99842 27.4912 1.89828 27.5 1.89828ZM27.5019 8.68762C17.1272 8.68762 8.69504 17.1217 8.69504 27.4963C8.69504 37.8709 17.1272 46.3031 27.5019 46.3031C37.8765 46.3031 46.3031 37.8709 46.3031 27.4963C46.3031 17.1217 37.8765 8.68762 27.5019 8.68762ZM27.5019 10.584C36.8516 10.584 44.4067 18.1466 44.4067 27.4963C44.4067 36.846 36.8516 44.4067 27.5019 44.4067C18.1521 44.4067 10.5915 36.846 10.5915 27.4963C10.5915 18.1466 18.1521 10.584 27.5019 10.584ZM27.5 17.8234C27.3027 17.823 27.1102 17.8839 26.9492 17.9977C26.7883 18.1116 26.6668 18.2727 26.6018 18.4586L24.5461 24.359L18.2901 24.4887C18.0932 24.4929 17.9025 24.5581 17.7444 24.6754C17.5863 24.7927 17.4686 24.9562 17.4078 25.1433C17.3469 25.3303 17.3459 25.5316 17.4047 25.7193C17.4636 25.907 17.5795 26.0717 17.7364 26.1906L22.7238 29.965L20.9125 35.9487C20.8566 36.1366 20.8605 36.3372 20.9235 36.5229C20.9866 36.7085 21.1058 36.8701 21.2646 36.9853C21.4235 37.1005 21.6142 37.1636 21.8105 37.166C22.0069 37.1685 22.1991 37.11 22.3608 36.9988L27.5 33.4319L32.6392 36.9988C32.8009 37.1093 32.9929 37.1672 33.1888 37.1644C33.3848 37.1617 33.575 37.0984 33.7335 36.9833C33.892 36.8683 34.0109 36.7071 34.074 36.5218C34.137 36.3366 34.1411 36.1364 34.0856 35.9487L32.2744 29.965L37.2618 26.1906C37.4186 26.0717 37.5345 25.907 37.5934 25.7193C37.6523 25.5316 37.6512 25.3303 37.5904 25.1433C37.5295 24.9562 37.4119 24.7927 37.2538 24.6754C37.0957 24.5581 36.9049 24.4929 36.708 24.4887L30.4521 24.359L28.3964 18.4586C28.3314 18.273 28.2103 18.1121 28.0497 17.9983C27.8891 17.8845 27.697 17.8233 27.5 17.8234ZM27.5 21.6552L28.8742 25.6073C28.9376 25.79 29.0555 25.9491 29.2121 26.0629C29.3687 26.1768 29.5565 26.2401 29.7502 26.2444L33.9393 26.3295L30.6039 28.8538C30.4487 28.9702 30.3331 29.1314 30.2724 29.3155C30.2118 29.4996 30.2093 29.6978 30.265 29.8835L31.4781 33.8893L28.0389 31.4966C27.8799 31.3862 27.6909 31.327 27.4972 31.327C27.3036 31.327 27.1145 31.3862 26.9555 31.4966L23.5164 33.8893L24.7294 29.8835C24.7856 29.6982 24.7836 29.5002 24.7236 29.3161C24.6637 29.132 24.5488 28.9707 24.3942 28.8538L21.0607 26.3295L25.2443 26.2444C25.4386 26.2409 25.6272 26.1779 25.7845 26.064C25.9418 25.9501 26.0603 25.7906 26.124 25.6073L27.5 21.6552Z" fill="#C2CDBD"/>
</svg>
