<svg width="56" height="56" viewBox="0 0 56 56" fill="none" xmlns="http://www.w3.org/2000/svg">
<path fill-rule="evenodd" clip-rule="evenodd" d="M27.8407 1.40169C27.7324 1.42035 27.6283 1.45765 27.5331 1.51189C22.5381 4.37478 16.8547 5.88545 11.0694 5.88906C9.52604 5.87962 7.98049 5.76397 6.45367 5.5404C6.32077 5.52152 6.1853 5.53103 6.05644 5.56829C5.92758 5.60555 5.80834 5.66969 5.70678 5.75636C5.60522 5.84303 5.52372 5.95022 5.46778 6.07066C5.41185 6.19111 5.38279 6.322 5.38257 6.45449V32.9325C5.38257 39.3619 11.1011 44.7847 16.6135 48.6781C22.1259 52.5714 27.6228 54.9593 27.6228 54.9593C27.7417 55.0108 27.8701 55.0374 28 55.0374C28.1298 55.0374 28.2583 55.0108 28.3771 54.9593C28.3771 54.9593 33.8741 52.5714 39.3865 48.6781C44.8988 44.7847 50.6174 39.3619 50.6174 32.9325V6.45449C50.6171 6.32201 50.5881 6.19111 50.5321 6.07067C50.4762 5.95023 50.3947 5.84305 50.2932 5.75637C50.1916 5.6697 50.0724 5.60557 49.9435 5.56831C49.8147 5.53104 49.6792 5.52153 49.5463 5.5404C48.0219 5.76362 46.4773 5.87892 44.936 5.88906C39.1484 5.88628 33.4712 4.37592 28.4742 1.51189C28.2828 1.40259 28.0584 1.36356 27.8407 1.40169ZM28.0036 3.30033C33.1779 6.16559 38.9896 7.73644 44.936 7.73892C44.9384 7.73893 44.9407 7.73893 44.9431 7.73892C46.2154 7.73053 47.4791 7.5973 48.7423 7.45169V32.9325C48.7423 38.2378 43.6212 43.4065 38.2932 47.1696C33.1554 50.7984 28.3649 52.8885 28.0034 53.048C27.6465 52.8905 22.8466 50.8002 17.7063 47.1696C12.3783 43.4065 7.25719 38.2378 7.25719 32.9325V7.45169C8.52038 7.59737 9.78382 7.73109 11.0564 7.73892C11.0587 7.73893 11.0611 7.73893 11.0634 7.73892C17.01 7.73615 22.8293 6.16571 28.0036 3.30033ZM38.7988 19.8028C38.5522 19.8105 38.3187 19.9137 38.1488 20.09L26.0043 32.7754L19.2079 25.4626C19.1249 25.372 19.0247 25.2986 18.9128 25.2465C18.801 25.1943 18.6798 25.1645 18.5562 25.1588C18.4327 25.1531 18.3092 25.1716 18.1929 25.2132C18.0766 25.2548 17.9698 25.3187 17.8786 25.4012C17.7874 25.4835 17.7135 25.5828 17.6613 25.6934C17.6091 25.804 17.5796 25.9238 17.5745 26.0457C17.5694 26.1676 17.5888 26.2893 17.6316 26.4037C17.6743 26.5182 17.7396 26.6232 17.8237 26.7127L25.2975 34.7553C25.3847 34.8483 25.4903 34.9226 25.6079 34.9737C25.7254 35.0248 25.8523 35.0515 25.9807 35.0522C26.1091 35.0529 26.2363 35.0275 26.3543 34.9777C26.4724 34.9279 26.5789 34.8547 26.6671 34.7626L39.5037 21.3601C39.589 21.2719 39.6557 21.1679 39.7001 21.0541C39.7445 20.9403 39.7657 20.819 39.7624 20.6971C39.7591 20.5752 39.7314 20.4551 39.6809 20.3439C39.6305 20.2326 39.5582 20.1322 39.4682 20.0486C39.2865 19.8826 39.0462 19.7941 38.7988 19.8028Z" fill="#C2CDBD"/>
</svg>
