<svg width="162" height="36" viewBox="0 0 162 36" fill="none" xmlns="http://www.w3.org/2000/svg">
<path d="M3.213 18.818C2.277 20.042 1.809 21.365 1.809 22.787C1.809 24.479 2.52 25.793 3.942 26.729C4.77 27.287 5.706 27.566 6.75 27.566C7.812 27.566 8.73 27.359 9.504 26.945C10.962 26.189 11.781 24.92 11.961 23.138C11.979 23.012 11.988 22.886 11.988 22.76C11.988 22.094 11.799 21.374 11.421 20.6C11.061 19.826 10.467 19.115 9.639 18.467L4.779 14.633C3.717 13.805 3.186 12.734 3.186 11.42C3.186 10.106 3.609 8.999 4.455 8.099C5.301 7.181 6.444 6.722 7.884 6.722C8.604 6.722 9.387 6.812 10.233 6.992H11.313L11.367 10.313H11.097C11.079 9.449 10.764 8.774 10.152 8.288C9.558 7.784 8.802 7.532 7.884 7.532C6.984 7.532 6.228 7.838 5.616 8.45C5.004 9.044 4.698 9.818 4.698 10.772C4.698 11.708 5.094 12.491 5.886 13.121L10.881 17.063C12.861 18.629 13.851 20.519 13.851 22.733C13.851 24.389 13.194 25.811 11.88 26.999C10.746 28.025 9.234 28.538 7.344 28.538C6.192 28.538 5.166 28.322 4.266 27.89C2.574 27.098 1.557 25.748 1.215 23.84C1.161 23.552 1.134 23.192 1.134 22.76C1.134 22.31 1.26 21.707 1.512 20.951C1.764 20.177 2.25 19.403 2.97 18.629L3.213 18.818ZM24.1684 14.1H27.5854V14.27H27.4324C27.149 14.27 26.8714 14.3607 26.5994 14.542C26.3274 14.712 26.112 14.9727 25.9534 15.324L21.8564 24.487C21.437 25.405 21.2274 25.9887 21.2274 26.238H21.0744L16.2974 15.341C16.1387 14.9783 15.9177 14.712 15.6344 14.542C15.3624 14.3607 15.0847 14.27 14.8014 14.27H14.6654V14.1H18.4904V14.27H18.3374C18.0994 14.27 17.918 14.3493 17.7934 14.508C17.68 14.6553 17.6234 14.797 17.6234 14.933C17.6234 15.0577 17.6517 15.188 17.7084 15.324L21.2614 24.232L24.9674 15.324C25.0127 15.188 25.0354 15.0577 25.0354 14.933C25.0354 14.797 24.973 14.6553 24.8484 14.508C24.735 14.3493 24.5594 14.27 24.3214 14.27H24.1684V14.1ZM37.7814 25.83H37.9174V26H34.0924V25.83H34.2454C34.4834 25.83 34.659 25.7563 34.7724 25.609C34.897 25.4503 34.9594 25.303 34.9594 25.167C34.9594 25.031 34.9367 24.895 34.8914 24.759L33.8034 21.869H29.2134L28.0744 24.776C28.029 24.912 28.0064 25.048 28.0064 25.184C28.0064 25.3087 28.063 25.4503 28.1764 25.609C28.301 25.7563 28.4824 25.83 28.7204 25.83H28.8734V26H25.4564V25.83H25.6094C25.8927 25.83 26.1704 25.7393 26.4424 25.558C26.7144 25.3767 26.9354 25.1103 27.1054 24.759L30.9474 15.613C31.3667 14.695 31.5764 14.1113 31.5764 13.862H31.7294L36.2854 24.759C36.444 25.1103 36.6594 25.3767 36.9314 25.558C37.2034 25.7393 37.4867 25.83 37.7814 25.83ZM29.4174 21.359H33.5994L31.5594 15.902L29.4174 21.359ZM42.2339 14.627H41.1459V24.759C41.1459 25.0537 41.2479 25.3087 41.4519 25.524C41.6672 25.728 41.9279 25.83 42.2339 25.83H42.4379L42.4549 26H38.7319V25.83H38.9529C39.2476 25.83 39.4969 25.728 39.7009 25.524C39.9162 25.32 40.0296 25.0707 40.0409 24.776V15.341C40.0296 15.0463 39.9162 14.797 39.7009 14.593C39.4969 14.3777 39.2476 14.27 38.9529 14.27H38.7319V14.1H43.3219C44.3532 14.1 45.1636 14.389 45.7529 14.967C46.3422 15.5337 46.6369 16.276 46.6369 17.194C46.6369 18.1007 46.3536 18.8883 45.7869 19.557C45.2316 20.2143 44.5516 20.543 43.7469 20.543C43.9169 20.6223 44.1152 20.781 44.3419 21.019C44.5799 21.2457 44.7896 21.4837 44.9709 21.733C45.9456 23.127 46.5802 23.9883 46.8749 24.317C47.1696 24.6343 47.3792 24.8553 47.5039 24.98C47.6286 25.0933 47.7646 25.2067 47.9119 25.32C48.0592 25.4333 48.2066 25.524 48.3539 25.592C48.6826 25.7507 49.0339 25.83 49.4079 25.83V26H48.4729C47.9856 26 47.5322 25.915 47.1129 25.745C46.6936 25.5637 46.3762 25.3823 46.1609 25.201C45.9569 25.0083 45.7756 24.827 45.6169 24.657C45.4696 24.4757 45.0502 23.8863 44.3589 22.889C43.6676 21.8917 43.2652 21.325 43.1519 21.189C43.0386 21.0417 42.9196 20.9 42.7949 20.764C42.4322 20.3787 42.0696 20.186 41.7069 20.186V20.016C41.7976 20.0273 41.9166 20.033 42.0639 20.033C42.2112 20.033 42.3926 20.0273 42.6079 20.016C44.0132 19.982 44.8972 19.3927 45.2599 18.248C45.3279 18.0213 45.3619 17.8117 45.3619 17.619C45.3619 17.415 45.3619 17.2847 45.3619 17.228C45.3392 16.4687 45.1409 15.8567 44.7669 15.392C44.3929 14.9273 43.8886 14.678 43.2539 14.644C42.9819 14.6327 42.6419 14.627 42.2339 14.627ZM78.9168 30.374C79.0248 30.374 79.1328 30.374 79.2408 30.374V30.644C78.7368 30.716 78.1698 30.752 77.5398 30.752C76.9278 30.752 76.1628 30.617 75.2448 30.347C74.3448 30.077 73.5258 29.573 72.7878 28.835C71.2758 27.323 70.3578 25.361 70.0338 22.949L68.3868 10.934L62.7708 23.624C62.2668 24.722 61.9608 25.64 61.8528 26.378H61.5828L54.5898 11.177L53.4018 24.596C53.3658 24.902 53.4558 25.172 53.6718 25.406C53.9058 25.64 54.1578 25.757 54.4278 25.757H54.8598V26H49.6218V25.73H50.0538C50.5398 25.73 50.9628 25.586 51.3228 25.298C51.7008 24.992 51.9348 24.596 52.0248 24.11L53.7258 9.368C52.1418 6.254 50.2428 4.697 48.0288 4.697C47.8308 4.697 47.6238 4.706 47.4078 4.724V4.454C47.8938 4.328 48.2898 4.265 48.5958 4.265C48.9018 4.265 49.2348 4.283 49.5948 4.319C49.9548 4.337 50.3778 4.418 50.8638 4.562C51.3498 4.706 51.8088 4.922 52.2408 5.21C52.6728 5.48 53.0508 5.768 53.3748 6.074C53.6988 6.362 54.0048 6.686 54.2928 7.046C54.7788 7.694 55.1658 8.315 55.4538 8.909L61.9608 23.003L69.2238 6.722H69.4668L71.9778 22.706C72.3558 25.226 73.1658 27.134 74.4078 28.43C75.6678 29.726 77.1708 30.374 78.9168 30.374ZM75.5857 25.83C75.8804 25.83 76.1297 25.728 76.3337 25.524C76.5491 25.3087 76.6624 25.0537 76.6737 24.759V15.239C76.6737 14.967 76.5661 14.7403 76.3507 14.559C76.1354 14.3663 75.8804 14.27 75.5857 14.27H75.3817L75.3647 14.1H80.3457C80.6971 14.1 81.0767 14.066 81.4847 13.998C81.9041 13.93 82.1987 13.862 82.3687 13.794V15.936H82.1987V15.63C82.1987 15.358 82.1024 15.1257 81.9097 14.933C81.7284 14.7403 81.5074 14.6383 81.2467 14.627H77.7787V19.88H80.6517C80.8784 19.8687 81.0711 19.7837 81.2297 19.625C81.3884 19.4663 81.4677 19.268 81.4677 19.03V18.792H81.6377V21.478H81.4677V21.223C81.4677 20.9963 81.3884 20.8037 81.2297 20.645C81.0824 20.4863 80.8954 20.4013 80.6687 20.39H77.7787V25.473H80.2097C81.0484 25.473 81.6887 25.286 82.1307 24.912C82.5727 24.538 82.9411 23.9827 83.2357 23.246H83.4057L82.4197 26H75.3647V25.83H75.5857ZM94.1693 15.613C94.1693 15.341 94.0729 15.1087 93.8803 14.916C93.6876 14.712 93.4609 14.6043 93.2003 14.593H89.9703V24.776C89.9816 25.0707 90.0893 25.32 90.2933 25.524C90.5086 25.728 90.7636 25.83 91.0583 25.83H91.2793V26H87.5563V25.83H87.7773C88.0719 25.83 88.3213 25.728 88.5252 25.524C88.7406 25.32 88.8539 25.0763 88.8653 24.793V14.593H85.6353C85.3633 14.6043 85.1309 14.712 84.9383 14.916C84.7569 15.1087 84.6663 15.341 84.6663 15.613V15.902L84.4963 15.919V13.777C84.6663 13.845 84.9609 13.913 85.3803 13.981C85.7996 14.049 86.1849 14.083 86.5363 14.083H92.2823C92.8376 14.083 93.2966 14.0433 93.6593 13.964C94.0333 13.8733 94.2599 13.811 94.3393 13.777V15.919L94.1693 15.902V15.613ZM104.169 6.668C105.735 6.668 107.04 7.046 108.084 7.802C109.488 8.81 110.19 10.385 110.19 12.527C110.19 14.075 109.758 15.398 108.894 16.496C107.958 17.666 106.653 18.251 104.979 18.251C104.097 18.251 103.296 18.044 102.576 17.63C101.856 17.198 101.433 16.469 101.307 15.443L101.55 15.362C101.748 16.136 102.207 16.676 102.927 16.982C103.413 17.198 103.845 17.306 104.223 17.306C105.699 17.306 106.77 16.73 107.436 15.578C107.922 14.732 108.165 13.724 108.165 12.554C108.165 10.682 107.643 9.332 106.599 8.504C105.807 7.856 104.799 7.532 103.575 7.532C103.287 7.532 103.035 7.55 102.819 7.586C102.621 7.604 101.721 7.748 100.119 8.018V24.029C100.137 24.515 100.317 24.92 100.659 25.244C101.001 25.568 101.397 25.73 101.847 25.73H102.198V26H96.285V25.73H96.636C97.086 25.73 97.482 25.568 97.824 25.244C98.166 24.92 98.346 24.515 98.364 24.029V9.422C98.364 8.954 98.229 8.594 97.959 8.342C97.689 8.072 97.338 7.937 96.906 7.937C96.816 7.937 96.726 7.946 96.636 7.964L96.312 7.991L96.258 7.721C97.194 7.631 98.445 7.46 100.011 7.208C101.595 6.938 102.576 6.785 102.954 6.749C103.332 6.695 103.737 6.668 104.169 6.668ZM115.93 14.627H114.842V24.759C114.842 25.0537 114.944 25.3087 115.148 25.524C115.364 25.728 115.624 25.83 115.93 25.83H116.134L116.151 26H112.428V25.83H112.649C112.944 25.83 113.193 25.728 113.397 25.524C113.613 25.32 113.726 25.0707 113.737 24.776V15.341C113.726 15.0463 113.613 14.797 113.397 14.593C113.193 14.3777 112.944 14.27 112.649 14.27H112.428V14.1H117.018C118.05 14.1 118.86 14.389 119.449 14.967C120.039 15.5337 120.333 16.276 120.333 17.194C120.333 18.1007 120.05 18.8883 119.483 19.557C118.928 20.2143 118.248 20.543 117.443 20.543C117.613 20.6223 117.812 20.781 118.038 21.019C118.276 21.2457 118.486 21.4837 118.667 21.733C119.642 23.127 120.277 23.9883 120.571 24.317C120.866 24.6343 121.076 24.8553 121.2 24.98C121.325 25.0933 121.461 25.2067 121.608 25.32C121.756 25.4333 121.903 25.524 122.05 25.592C122.379 25.7507 122.73 25.83 123.104 25.83V26H122.169C121.682 26 121.229 25.915 120.809 25.745C120.39 25.5637 120.073 25.3823 119.857 25.201C119.653 25.0083 119.472 24.827 119.313 24.657C119.166 24.4757 118.747 23.8863 118.055 22.889C117.364 21.8917 116.962 21.325 116.848 21.189C116.735 21.0417 116.616 20.9 116.491 20.764C116.129 20.3787 115.766 20.186 115.403 20.186V20.016C115.494 20.0273 115.613 20.033 115.76 20.033C115.908 20.033 116.089 20.0273 116.304 20.016C117.71 19.982 118.594 19.3927 118.956 18.248C119.024 18.0213 119.058 17.8117 119.058 17.619C119.058 17.415 119.058 17.2847 119.058 17.228C119.036 16.4687 118.837 15.8567 118.463 15.392C118.089 14.9273 117.585 14.678 116.95 14.644C116.678 14.6327 116.338 14.627 115.93 14.627ZM124.648 15.579C125.861 14.4343 127.431 13.862 129.357 13.862C131.295 13.862 132.871 14.4343 134.083 15.579C135.296 16.7123 135.902 18.2027 135.902 20.05C135.902 21.8973 135.296 23.3933 134.083 24.538C132.871 25.6713 131.295 26.238 129.357 26.238C127.431 26.238 125.861 25.6713 124.648 24.538C123.436 23.3933 122.829 21.8973 122.829 20.05C122.829 18.2027 123.436 16.7123 124.648 15.579ZM125.566 24.164C126.53 25.2067 127.793 25.728 129.357 25.728C130.921 25.728 132.179 25.2067 133.131 24.164C134.095 23.1213 134.576 21.75 134.576 20.05C134.576 18.35 134.095 16.9787 133.131 15.936C132.179 14.8933 130.921 14.372 129.357 14.372C127.793 14.372 126.53 14.8933 125.566 15.936C124.614 16.9787 124.138 18.35 124.138 20.05C124.138 21.75 124.614 23.1213 125.566 24.164ZM144.252 14.287V15.715H144.082V15.46C144.082 15.2333 144.002 15.0407 143.844 14.882C143.685 14.712 143.487 14.627 143.249 14.627H139.662V19.88H142.535C142.761 19.8687 142.954 19.7837 143.113 19.625C143.271 19.4663 143.351 19.2737 143.351 19.047V18.792H143.521V21.478H143.351V21.223C143.351 20.9963 143.271 20.8037 143.113 20.645C142.965 20.4863 142.778 20.4013 142.552 20.39H139.662V24.759C139.662 25.0537 139.769 25.3087 139.985 25.524C140.2 25.728 140.455 25.83 140.75 25.83H140.971V26H137.248V25.83H137.469C137.763 25.83 138.013 25.728 138.217 25.524C138.432 25.3087 138.545 25.0537 138.557 24.759V15.239C138.557 14.967 138.443 14.7403 138.217 14.559C138.001 14.3663 137.752 14.27 137.469 14.27H137.265L137.248 14.1H142.229C142.58 14.1 142.96 14.066 143.368 13.998C143.787 13.93 144.082 13.862 144.252 13.794V14.287ZM146.666 25.83C146.96 25.83 147.21 25.728 147.414 25.524C147.629 25.3087 147.742 25.0537 147.754 24.759V15.324C147.742 15.0293 147.629 14.78 147.414 14.576C147.21 14.372 146.96 14.27 146.666 14.27H146.445V14.1H150.168V14.27H149.947C149.652 14.27 149.397 14.372 149.182 14.576C148.978 14.78 148.87 15.0293 148.859 15.324V24.759C148.859 25.0537 148.966 25.3087 149.182 25.524C149.397 25.728 149.652 25.83 149.947 25.83H150.168V26H146.445V25.83H146.666ZM161.182 15.613C161.182 15.341 161.086 15.1087 160.893 14.916C160.7 14.712 160.474 14.6043 160.213 14.593H156.983V24.776C156.994 25.0707 157.102 25.32 157.306 25.524C157.521 25.728 157.776 25.83 158.071 25.83H158.292V26H154.569V25.83H154.79C155.085 25.83 155.334 25.728 155.538 25.524C155.753 25.32 155.867 25.0763 155.878 24.793V14.593H152.648C152.376 14.6043 152.144 14.712 151.951 14.916C151.77 15.1087 151.679 15.341 151.679 15.613V15.902L151.509 15.919V13.777C151.679 13.845 151.974 13.913 152.393 13.981C152.812 14.049 153.198 14.083 153.549 14.083H159.295C159.85 14.083 160.309 14.0433 160.672 13.964C161.046 13.8733 161.273 13.811 161.352 13.777V15.919L161.182 15.902V15.613Z" fill="url(#paint0_linear_88_167)"/>
<defs>
<linearGradient id="paint0_linear_88_167" x1="0" y1="18" x2="162" y2="18" gradientUnits="userSpaceOnUse">
<stop stop-color="#836600"/>
<stop offset="0.33" stop-color="#DAB637"/>
<stop offset="0.515" stop-color="#F5C828"/>
<stop offset="0.685" stop-color="#DAB637"/>
<stop offset="1" stop-color="#836600"/>
</linearGradient>
</defs>
</svg>
