<svg width="11" height="20" viewBox="0 0 11 20" fill="none" xmlns="http://www.w3.org/2000/svg">
<path d="M5.49977 8.31771C3.79675 8.31771 2.41211 6.97658 2.41211 5.32707C2.41211 3.67756 3.79675 2.33643 5.49977 2.33643C7.20279 2.33643 8.58742 3.67756 8.58742 5.32707C8.58742 6.97658 7.20279 8.31771 5.49977 8.31771ZM5.49977 2.71026C4.009 2.71026 2.79807 3.88314 2.79807 5.32707C2.79807 6.77099 4.009 7.94388 5.49977 7.94388C6.99053 7.94388 8.20147 6.77099 8.20147 5.32707C8.20147 3.88314 6.99053 2.71026 5.49977 2.71026Z" fill="#C2CDBD"/>
<path d="M5.49987 20C5.42751 20 5.36479 19.9626 5.33102 19.9019C5.31654 19.8785 4.08149 17.5981 2.81749 14.7477C1.52936 11.8505 0 7.86923 0 5.32719C0 2.38794 2.46532 0 5.5 0C8.53468 0 11 2.38786 11 5.32719C11 7.86923 9.47064 11.8506 8.18251 14.7477C6.91851 17.5982 5.68345 19.8784 5.66898 19.9019C5.63521 19.9626 5.57249 20 5.50013 20H5.49987ZM5.49987 0.373698C2.68238 0.373698 0.385829 2.59797 0.385829 5.32706C0.385829 7.80369 1.90072 11.7381 3.16953 14.598C4.1537 16.813 5.11863 18.6822 5.49974 19.4066C5.88087 18.6823 6.84578 16.8131 7.82995 14.598C9.0988 11.7382 10.6136 7.80373 10.6136 5.32706C10.6136 2.59809 8.31723 0.373698 5.49961 0.373698H5.49987Z" fill="#C2CDBD"/>
</svg>
