<svg width="17" height="32" viewBox="0 0 17 32" fill="none" xmlns="http://www.w3.org/2000/svg">
<path d="M8.49937 13.3083C5.86743 13.3083 3.72754 11.1625 3.72754 8.52328C3.72754 5.88406 5.86743 3.73825 8.49937 3.73825C11.1313 3.73825 13.2712 5.88406 13.2712 8.52328C13.2712 11.1625 11.1313 13.3083 8.49937 13.3083ZM8.49937 4.33638C6.19546 4.33638 4.32402 6.213 4.32402 8.52328C4.32402 10.8336 6.19546 12.7102 8.49937 12.7102C10.8033 12.7102 12.6747 10.8336 12.6747 8.52328C12.6747 6.213 10.8033 4.33638 8.49937 4.33638Z" fill="#C2CDBD"/>
<path d="M8.4998 32C8.38796 32 8.29103 31.9402 8.23884 31.843C8.21648 31.8056 6.30775 28.157 4.3543 23.5963C2.36356 18.9609 0 12.5908 0 8.5235C0 3.82071 3.81004 0 8.5 0C13.19 0 17 3.82057 17 8.5235C17 12.5908 14.6364 18.961 12.6457 23.5963C10.6922 28.1571 8.78351 31.8054 8.76116 31.843C8.70896 31.9402 8.61204 32 8.5002 32H8.4998ZM8.4998 0.597917C4.1455 0.597917 0.596282 4.15675 0.596282 8.52329C0.596282 12.4859 2.93748 18.781 4.89836 23.3569C6.41935 26.9008 7.91062 29.8914 8.4996 31.0505C9.08862 29.8916 10.5798 26.901 12.1008 23.3569C14.0618 18.7812 16.4029 12.486 16.4029 8.52329C16.4029 4.15695 12.8539 0.597917 8.49939 0.597917H8.4998Z" fill="#C2CDBD"/>
</svg>
