<svg width="16.869385" height="15.750000" viewBox="0 0 16.8694 15.75" fill="none" xmlns="http://www.w3.org/2000/svg" xmlns:xlink="http://www.w3.org/1999/xlink">
	<desc>
			Created with Pixso.
	</desc>
	<defs/>
	<path id="Vector" d="M16.48 8.25L6.69 8.25C6.48 8.25 6.3 8.08 6.3 7.87C6.3 7.66 6.48 7.5 6.69 7.5L16.48 7.5C16.69 7.5 16.86 7.66 16.86 7.87C16.86 8.08 16.69 8.25 16.48 8.25Z" fill="#000000" fill-opacity="1.000000" fill-rule="nonzero"/>
	<path id="Vector" d="M0.38 15L16.48 15C16.69 15 16.86 15.16 16.86 15.37C16.86 15.58 16.69 15.75 16.48 15.75L0.38 15.75C0.17 15.75 0 15.58 0 15.37C0 15.16 0.17 15 0.38 15Z" fill="#000000" fill-opacity="1.000000" fill-rule="nonzero"/>
	<path id="Vector" d="M16.48 0.75L0.38 0.75C0.17 0.75 0 0.58 0 0.37C0 0.16 0.17 0 0.38 0L16.48 0C16.69 0 16.86 0.16 16.86 0.37C16.86 0.58 16.69 0.75 16.48 0.75Z" fill="#000000" fill-opacity="1.000000" fill-rule="nonzero"/>
</svg>
