<svg width="17" height="17" viewBox="0 0 17 17" fill="none" xmlns="http://www.w3.org/2000/svg">
<path d="M12.3716 17C11.9919 17 11.5796 16.9589 11.1306 16.8604C9.11806 16.4254 6.88101 14.9848 4.49309 12.5796C2.06008 10.1334 0.598816 7.91298 0.149448 5.97595C-0.246511 4.25625 0.145366 2.78693 1.31288 1.60879C1.37819 1.54312 1.48025 1.54312 1.54556 1.60879C1.61088 1.67446 1.61088 1.77707 1.54556 1.84274C0.459691 2.93449 0.0963899 4.30122 0.467865 5.90181C0.900586 7.77746 2.33341 9.9485 4.72155 12.3497C7.06883 14.7097 9.24882 16.1217 11.2001 16.5443C13.2208 16.9834 14.474 16.2405 15.1679 15.5428C15.2332 15.4771 15.3352 15.4771 15.4005 15.5428C15.4659 15.6085 15.4659 15.7111 15.4005 15.7767C14.8045 16.3719 13.833 16.9998 12.3716 16.9998L12.3716 17Z" fill="#005038"/>
<path d="M10.2245 12.1443C9.97548 12.1443 9.70197 12.0991 9.41623 12.0129C8.59161 11.7585 7.68538 11.151 6.79955 10.2604C5.91373 9.36977 5.30955 8.45859 5.05646 7.62955C4.80745 6.81691 4.91359 6.11917 5.35855 5.67593C5.42386 5.61026 5.52592 5.61026 5.59123 5.67593C5.65655 5.7416 5.65655 5.84421 5.59123 5.90988C5.23608 6.26695 5.15851 6.84155 5.3708 7.53516C5.60757 8.31496 6.18317 9.17687 7.03226 10.0306C8.66514 11.6723 10.3511 12.2674 11.1307 11.4835C11.196 11.4178 11.2981 11.4178 11.3634 11.4835C11.4287 11.5492 11.4287 11.6518 11.3634 11.7174C11.0735 11.9965 10.6857 12.1443 10.2244 12.1443L10.2245 12.1443Z" fill="#005038"/>
<path d="M15.2779 15.8138C15.2329 15.8138 15.1921 15.7974 15.1636 15.7646L11.1222 11.7014C11.0896 11.6686 11.0732 11.6275 11.0732 11.5865C11.0732 11.5454 11.0896 11.5003 11.1222 11.4715L12.551 10.0351C12.6612 9.92424 12.8122 9.86267 12.9715 9.86267C13.1307 9.86267 13.2776 9.92423 13.3919 10.0351L16.8251 13.4868C17.0577 13.7207 17.0577 14.0983 16.8251 14.3281L15.3963 15.7646C15.3636 15.7975 15.3228 15.8139 15.2779 15.8139L15.2779 15.8138ZM11.4691 11.5863L15.2779 15.4157L16.5923 14.0941C16.6944 13.9915 16.6944 13.8191 16.5923 13.7165L13.1592 10.2648C13.1102 10.2156 13.0408 10.1869 12.9714 10.1869C12.902 10.1869 12.8326 10.2156 12.7837 10.2648L11.4691 11.5863Z" fill="#005038"/>
<path d="M5.46495 5.94702C5.42413 5.94702 5.38331 5.9306 5.35065 5.89777L1.31754 1.84282C1.25223 1.77715 1.25223 1.67454 1.31754 1.60888L2.7463 0.172382C2.85652 0.0615673 3.00756 0 3.16678 0C3.326 0 3.47294 0.0615636 3.58726 0.172382L7.0163 3.61999C7.12652 3.7308 7.18775 3.88266 7.18775 4.04274C7.18775 4.20283 7.12652 4.35057 7.0163 4.4655L5.58754 5.90199C5.5508 5.93072 5.5059 5.94714 5.46508 5.94714L5.46495 5.94702ZM1.66436 1.72359L5.46906 5.54888L6.78354 4.22729C6.83252 4.17804 6.8611 4.10826 6.8611 4.03849C6.8611 3.96872 6.83252 3.89894 6.78354 3.8497L3.35449 0.402091C3.25244 0.299483 3.08099 0.299483 2.97895 0.402091L1.66436 1.72359Z" fill="#005038"/>
</svg>
