<svg width="17" height="17" viewBox="0 0 17 17" fill="none" xmlns="http://www.w3.org/2000/svg">
<path d="M12.3716 17C11.9919 17 11.5796 16.959 11.1306 16.8605C9.11806 16.4254 6.88101 14.9848 4.49309 12.5796C2.06008 10.1334 0.598816 7.913 0.149448 5.97596C-0.246511 4.25627 0.145366 2.78694 1.31288 1.60881C1.37819 1.54314 1.48025 1.54314 1.54556 1.60881C1.61088 1.67448 1.61088 1.77708 1.54556 1.84275C0.459691 2.9345 0.0963899 4.30124 0.467865 5.90183C0.900586 7.77747 2.33341 9.94852 4.72155 12.3497C7.06883 14.7097 9.24882 16.1218 11.2001 16.5443C13.2208 16.9834 14.474 16.2406 15.1679 15.5428C15.2332 15.4771 15.3352 15.4771 15.4005 15.5428C15.4659 15.6085 15.4659 15.7111 15.4005 15.7768C14.8045 16.3719 13.833 16.9999 12.3716 16.9999L12.3716 17Z" fill="#005038"/>
<path d="M10.2245 12.1443C9.97548 12.1443 9.70197 12.0991 9.41623 12.0129C8.59161 11.7585 7.68538 11.151 6.79955 10.2604C5.91373 9.36978 5.30955 8.4586 5.05646 7.62956C4.80745 6.81692 4.91359 6.11918 5.35855 5.67594C5.42386 5.61027 5.52592 5.61027 5.59123 5.67594C5.65655 5.74161 5.65655 5.84421 5.59123 5.90988C5.23608 6.26696 5.15851 6.84155 5.3708 7.53516C5.60757 8.31497 6.18317 9.17688 7.03226 10.0306C8.66514 11.6723 10.3511 12.2674 11.1307 11.4835C11.196 11.4178 11.2981 11.4178 11.3634 11.4835C11.4287 11.5492 11.4287 11.6518 11.3634 11.7174C11.0735 11.9965 10.6857 12.1443 10.2244 12.1443L10.2245 12.1443Z" fill="#005038"/>
<path d="M15.2783 15.8138C15.2334 15.8138 15.1926 15.7974 15.164 15.7646L11.1227 11.7014C11.0901 11.6685 11.0737 11.6275 11.0737 11.5865C11.0737 11.5454 11.0901 11.5003 11.1227 11.4715L12.5515 10.035C12.6617 9.92423 12.8127 9.86266 12.972 9.86266C13.1312 9.86266 13.2781 9.92423 13.3924 10.035L16.8255 13.4867C17.0582 13.7207 17.0582 14.0983 16.8255 14.3281L15.3968 15.7646C15.3641 15.7975 15.3233 15.8139 15.2784 15.8139L15.2783 15.8138ZM11.4695 11.5863L15.2783 15.4157L16.5928 14.0941C16.6949 13.9915 16.6949 13.8191 16.5928 13.7165L13.1597 10.2648C13.1107 10.2156 13.0413 10.1868 12.9719 10.1868C12.9025 10.1868 12.8331 10.2156 12.7841 10.2648L11.4695 11.5863Z" fill="#005038"/>
<path d="M5.46471 5.94702C5.42389 5.94702 5.38307 5.9306 5.35041 5.89777L1.3173 1.84282C1.25198 1.77715 1.25198 1.67454 1.3173 1.60888L2.74605 0.172382C2.85627 0.0615673 3.00732 0 3.16653 0C3.32575 0 3.4727 0.0615636 3.58701 0.172382L7.01606 3.61999C7.12627 3.7308 7.18751 3.88266 7.18751 4.04274C7.18751 4.20283 7.12628 4.35057 7.01606 4.4655L5.5873 5.90199C5.55056 5.93072 5.50565 5.94714 5.46483 5.94714L5.46471 5.94702ZM1.66412 1.72359L5.46882 5.54888L6.78329 4.22729C6.83228 4.17804 6.86085 4.10826 6.86085 4.03849C6.86085 3.96872 6.83228 3.89894 6.78329 3.8497L3.35425 0.402091C3.25219 0.299483 3.08074 0.299483 2.97871 0.402091L1.66412 1.72359Z" fill="#005038"/>
</svg>
