<svg width="21" height="21" viewBox="0 0 21 21" fill="none" xmlns="http://www.w3.org/2000/svg">
<path d="M15.2825 21C14.8136 21 14.3042 20.9493 13.7496 20.8276C11.2635 20.2902 8.50006 18.5106 5.55028 15.5395C2.54481 12.5178 0.739713 9.77489 0.184612 7.38208C-0.304513 5.25775 0.17957 3.4427 1.62179 1.98735C1.70247 1.90623 1.82854 1.90623 1.90923 1.98735C1.98991 2.06847 1.98991 2.19522 1.90923 2.27635C0.567854 3.62498 0.11907 5.3133 0.57795 7.2905C1.11249 9.60747 2.88245 12.2894 5.83251 15.2556C8.73208 18.1708 11.425 19.9151 13.8354 20.4371C16.3315 20.9795 17.8796 20.0619 18.7368 19.2C18.8174 19.1188 18.9435 19.1188 19.0242 19.2C19.1049 19.2811 19.1049 19.4078 19.0242 19.4889C18.288 20.2241 17.0878 20.9998 15.2825 20.9998L15.2825 21Z" fill="#C2CDBD"/>
<path d="M12.6302 15.0018C12.3226 15.0018 11.9847 14.946 11.6317 14.8396C10.6131 14.5252 9.49361 13.7749 8.39936 12.6747C7.30511 11.5745 6.55877 10.4489 6.24613 9.42482C5.93853 8.42097 6.06964 7.55906 6.6193 7.01152C6.69998 6.9304 6.82605 6.9304 6.90673 7.01152C6.98742 7.09264 6.98742 7.21939 6.90673 7.30051C6.46802 7.7416 6.37219 8.4514 6.63443 9.30822C6.92691 10.2715 7.63794 11.3362 8.68683 12.3908C10.7039 14.4188 12.7866 15.1539 13.7496 14.1856C13.8303 14.1045 13.9563 14.1045 14.037 14.1856C14.1177 14.2667 14.1177 14.3934 14.037 14.4746C13.679 14.8193 13.1999 15.0018 12.6301 15.0018L12.6302 15.0018Z" fill="#C2CDBD"/>
<path d="M18.8731 19.5348C18.8177 19.5348 18.7672 19.5145 18.7319 19.474L13.7397 14.4547C13.6994 14.4141 13.6792 14.3634 13.6792 14.3127C13.6792 14.262 13.6994 14.2063 13.7397 14.1708L15.5046 12.3963C15.6408 12.2594 15.8274 12.1833 16.0241 12.1833C16.2207 12.1833 16.4023 12.2594 16.5435 12.3963L20.7844 16.6602C21.0718 16.9491 21.0718 17.4156 20.7844 17.6995L19.0194 19.474C18.9791 19.5146 18.9287 19.5348 18.8732 19.5348L18.8731 19.5348ZM14.1681 14.3125L18.8731 19.043L20.4969 17.4104C20.623 17.2837 20.623 17.0707 20.4969 16.944L16.256 12.6801C16.1955 12.6193 16.1098 12.5838 16.024 12.5838C15.9383 12.5838 15.8526 12.6193 15.7921 12.6801L14.1681 14.3125Z" fill="#C2CDBD"/>
<path d="M6.75044 7.34632C6.70001 7.34632 6.64958 7.32604 6.60924 7.28548L1.62716 2.27643C1.54648 2.19531 1.54648 2.06855 1.62716 1.98743L3.3921 0.212943C3.52825 0.0760538 3.71483 0 3.91152 0C4.1082 0 4.28972 0.0760491 4.43093 0.212943L8.66681 4.47175C8.80296 4.60864 8.8786 4.79623 8.8786 4.99398C8.8786 5.19173 8.80296 5.37423 8.66681 5.51621L6.90187 7.2907C6.85649 7.32619 6.80102 7.34647 6.75059 7.34647L6.75044 7.34632ZM2.05559 2.12913L6.75551 6.8545L8.37927 5.22194C8.43979 5.1611 8.47508 5.07491 8.47508 4.98873C8.47508 4.90254 8.43979 4.81634 8.37927 4.75551L4.1434 0.496701C4.01733 0.36995 3.80554 0.36995 3.67949 0.496701L2.05559 2.12913Z" fill="#C2CDBD"/>
</svg>
